<svg width="962" height="96" viewBox="0 0 962 96" fill="none" xmlns="http://www.w3.org/2000/svg">
<path opacity="0.4" d="M359.669 2.61997L363.683 0H372.327L375.106 2.61997V18.648H378.656L381.28 21.7125V45.156H384.985V79.0615H387.764V72.2804H396.099V48.8548H396.1C396.1 48.8035 396.099 48.7521 396.099 48.7007C396.099 41.9765 401.559 36.5255 408.294 36.5255C415.029 36.5255 420.489 41.9765 420.489 48.7007C420.489 48.7521 420.489 48.8035 420.488 48.8548H420.489V68.2734H424.503V31.2855H427.899V25.7374H430.368V14.9493H431.295V8.47638H432.221V25.7374H441.174V8.47638H442.1V19.2645H443.026V25.7374H447.04V50.0877H467.107V56.8688H477.295L481 60.8758V60.2594L484.705 56.2523H505.081V50.7042H506.007V44.2313H506.933V54.7112H512.49V63.6499H510.947V75.3627H515.886V69.1981H525.148V67.9652H528.853V76.5957H535.336V78.1368H545.833V74.7463H552.008V67.3487H554.478V66.1158H559.726V64.5746H564.048V66.1158H564.666V67.3487H564.974V73.2051H567.444V56.2523C567.444 51.8263 571.038 48.2383 575.471 48.2383C579.904 48.2383 583.498 51.8263 583.498 56.2523H583.652L605.727 61.531V54.7112H606.344V57.7935H606.961V61.8264L609.431 62.417V73.8216H623.015C623.015 70.7574 625.503 68.2734 628.573 68.2734C631.642 68.2734 634.13 70.7574 634.13 73.8216V79.678H638.452V81.5274H641.848V56.5606L650.029 48.3924H655.123V39.916H656.049V42.9984H656.976V48.3924H662.224L670.251 56.5606V70.7392H677.66V72.5886H692.171V70.431H696.493V91.3908H702.359V65.1911C702.359 62.1269 704.847 59.6429 707.916 59.6429C710.985 59.6429 713.473 62.1269 713.473 65.1911H719.956V62.417H730.453L733.849 59.0264V52.5536H742.185V43.9231H743.111V37.4502H744.037V52.5536H752.373V62.417H772.44V67.6569H780.159V55.6359L790.964 52.6392V46.0807H794.669V28.3306L799.454 18.4939H806.246L811.649 28.3306V46.0807H816.589V79.678H819.985V69.5063H828.32V66.7322H832.025V45.156H836.347V19.4142L840.361 18.648H840.669V2.61997L844.683 0H853.327L856.106 2.61997V18.648H859.656L862.28 21.7125V45.156H865.985V79.0615H868.764V72.2804H877.099V48.8548C877.099 48.8206 877.099 48.7863 877.099 48.7521L877.099 48.7007C877.099 41.9765 882.559 36.5255 889.294 36.5255C896.029 36.5255 901.489 41.9765 901.489 48.7007C901.489 48.7521 901.49 48.8035 901.489 48.8548V68.2734H905.503V31.2855H908.899V25.7374H911.368V14.9493H912.295V8.47638H913.221V25.7374H922.174V8.47638H923.1V19.2645H924.026V25.7374H928.04V50.0877H948.107V56.8688H958.295L962 60.8758V95.706H0V60.2594L3.70475 56.2523H24.0809V50.7042H25.0071V44.2313H25.9332V54.7112H31.4904V63.6499H29.9467V75.3627H34.8864V69.1981H44.1483V67.9652H47.853V76.5957H54.3363V78.1368H64.8331V74.7463H71.0077V67.3487H73.4775V66.1158H78.7259V64.5746H83.0481V66.1158H83.6656V67.3487H83.9743V73.2051H86.4442V56.2523C86.4442 51.8263 90.038 48.2383 94.4711 48.2383C98.9043 48.2383 102.498 51.8263 102.498 56.2523H102.652L124.727 61.531V54.7112H125.344V57.7935H125.961V61.8264L128.431 62.417V73.8216H142.015C142.015 70.7574 144.503 68.2734 147.573 68.2734C150.642 68.2734 153.13 70.7574 153.13 73.8216V79.678H157.452V81.5274H160.848V56.5606L169.029 48.3924H174.123V39.916H175.049V42.9984H175.976V48.3924H181.224L189.251 56.5606V70.7392H196.66V72.5886H211.171V70.431H215.493V91.3908H221.359V65.1911C221.359 62.1269 223.847 59.6429 226.916 59.6429C229.985 59.6429 232.473 62.1269 232.473 65.1911H238.956V62.417H249.453L252.849 59.0264V52.5536H261.185V43.9231H262.111V37.4502H263.037V52.5536H271.373V62.417H291.44V67.6569H299.159V55.6359L309.964 52.6392V46.0807H313.669V28.3306L318.454 18.4939H325.246L330.649 28.3306V46.0807H335.589V79.678H338.985V69.5063H347.32V66.7322H351.025V45.156H355.347V19.4142L359.361 18.648H359.669V2.61997Z" fill="#BFE6EA"/>
</svg>
