<svg width="1001" height="171" viewBox="0 0 1001 171" fill="none" xmlns="http://www.w3.org/2000/svg">
<path fill-rule="evenodd" clip-rule="evenodd" d="M22.2282 85.6938C15.7009 85.4702 9.18404 85.2104 2.66939 84.9229C1.39661 84.866 0.318239 85.8543 0.26249 87.1295C0.20674 88.4047 1.19482 89.4863 2.4676 89.5432C8.33197 89.7965 14.1978 90.0314 20.0606 90.2474C20.3838 90.4777 21.0353 90.8179 22.1576 91.0295C57.1344 97.4007 95.1271 93.7048 131.043 91.8804C164.685 91.7447 198.353 91.1102 232.034 90.208C228.017 90.5219 224.002 90.8268 219.985 91.1128C219.149 91.1748 216.983 91.3423 216.684 91.4108C214.977 91.8379 214.905 93.2972 214.905 93.6681C214.905 93.8535 215.002 95.9016 217.298 96.0044C241.966 97.088 266.68 95.3192 291.283 93.7545C300.435 93.171 309.578 92.5682 318.727 91.9474C321.909 91.7233 330.182 91.4765 331.326 91.2818C332.556 91.0663 333.046 90.2994 333.24 89.7031C353.082 88.8464 372.942 88.1396 392.806 87.5721C396.692 87.637 400.572 87.7107 404.452 87.7845C446.741 88.6285 489.015 89.6292 531.304 90.2879C507.725 90.9619 484.087 91.7239 460.534 92.938C455.71 93.1863 450.892 93.5651 446.069 93.8507C443.433 93.9985 436.627 93.9747 435.663 94.2674C434.227 94.7166 433.982 95.8097 433.936 96.353C433.908 96.6846 433.981 98.5358 436.372 99.0359C480.726 108.347 526.101 110.953 571.194 114.093C583.057 114.916 594.915 115.786 606.768 116.692C578.407 116.681 549.788 115.147 521.495 113.964C521.243 113.721 520.879 113.488 520.353 113.325C519.581 113.076 517.183 112.733 512.809 112.332C511.866 112.246 511.004 112.742 510.575 113.523C503.852 113.275 497.147 113.055 490.472 112.894C468.612 112.363 446.739 112.609 424.88 112.18L419.934 112.039L418.903 112.011C415.114 111.879 410.481 111.698 407.402 111.578C405.625 111.499 401.002 111.402 400.362 111.406C398.432 111.435 398.071 113.214 398.056 113.296C398.048 113.342 398.029 115.946 400.666 116.058C402.432 116.136 409.097 116.343 418.441 116.619C420.788 116.698 422.847 116.763 424.075 116.789L425.02 116.81C454.899 117.648 502.782 118.817 516.354 118.378C560.452 120.139 605.428 123.028 649.061 119.975C650.493 119.869 651.128 119.42 651.252 119.319C651.938 118.734 652.091 118.06 652.075 117.475C652.065 117.103 651.905 115.597 650.103 115.219C648.837 114.949 639.681 114.615 636.159 114.338C614.617 112.646 593.071 110.981 571.514 109.482C532.641 106.773 493.556 104.483 455.099 97.8938C456.989 97.769 458.88 97.6536 460.772 97.5568C484.653 96.323 508.623 95.5507 532.526 94.8752C606.758 92.775 682.574 98.6487 756.516 93.6503C758.031 93.5507 758.716 93.1055 758.848 93.005C759.574 92.4147 759.727 91.713 759.709 91.1181C759.698 90.7555 759.523 89.2298 757.687 88.8582C756.172 88.5498 745.225 88.1903 741.014 87.8857C724.198 86.6696 707.369 85.443 690.529 84.6238C662.731 83.277 634.867 82.2771 607.003 81.6668C604.634 81.0851 602.177 80.5428 599.64 80.0402C618.437 80.0446 637.222 80.2056 655.996 80.579C732.953 82.0847 809.869 84.839 886.761 88.157C918.607 89.5356 950.874 92.7009 982.756 92.7283C983.886 92.7273 986.383 93.0042 987.615 93.0022C988.319 93.0037 988.838 92.888 989.086 92.7969C990.119 92.3985 990.466 91.657 990.587 91.0733C990.689 90.6179 990.893 89.123 989.009 88.2468C948.505 69.3995 883.555 74.2929 841.118 71.7119C667.835 61.1753 494.22 62.6581 320.802 68.8212C251.466 71.2815 182.305 73.8022 113.074 78.4596C88.5052 80.1105 63.9117 81.3608 39.4473 84.2257C36.2541 84.6064 29.5113 84.9309 25.1881 85.322C24.0241 85.4316 23.0104 85.5625 22.2282 85.6938ZM975.982 88.0521C935.919 74.6378 879.109 78.6522 840.839 76.326C667.704 65.8014 494.237 67.2775 320.966 73.4341C251.68 75.8984 182.568 78.4141 113.383 83.0752C95.7839 84.253 78.1697 85.2347 60.6023 86.7489C84.0197 87.2023 107.452 87.3511 130.921 87.2617C135.809 87.0092 140.663 86.7908 145.465 86.6426C204.443 84.7977 263.551 83.0378 322.633 82.6665C342.187 81.9626 361.742 81.2308 381.313 80.5097C419.219 77.8082 470.967 73.9488 518.513 73.9675C534.867 73.9777 550.727 74.4485 565.367 75.59C595.637 75.2919 625.873 75.3621 656.085 75.9588C733.079 77.4583 810.03 80.2247 886.967 83.5463C916.487 84.8196 946.364 87.6427 975.982 88.0521ZM606.462 86.2782C588.607 85.8959 570.755 85.6807 552.925 85.6342C544.989 85.6209 537.052 85.6168 529.113 85.631C533.446 85.7044 537.781 85.7687 542.115 85.8237C562.458 86.1111 582.849 86.4303 603.198 86.3287C604.209 86.3181 605.564 86.3724 607.081 86.4398L606.489 86.2897L606.462 86.2782ZM716.409 90.7761C707.712 90.2002 699.012 89.6613 690.307 89.2424C667.712 88.151 645.076 87.2786 622.43 86.6651C622.966 87.0239 623.248 87.3622 623.376 87.5766C623.751 88.182 623.802 88.7702 623.704 89.3001C623.644 89.6291 623.514 90.0175 623.228 90.3837C654.336 90.9049 685.48 91.4936 716.409 90.7761ZM575.893 81.1643C572.489 80.8046 569 80.4844 565.436 80.2044C547.74 80.3821 530.04 80.6708 512.358 81.0536C525.879 81.0008 539.409 80.9859 552.934 81.0168C560.585 81.0348 568.239 81.0811 575.893 81.1643Z" fill="#F95A5F"/>
</svg>
